<svg width="336" height="402" viewBox="0 0 336 402" fill="none" xmlns="http://www.w3.org/2000/svg">
<path d="M308.213 20.9347C296.857 18.7367 285.829 26.1887 283.631 37.5447C281.433 48.9017 288.885 59.9287 300.241 62.1267C311.597 64.3247 322.624 56.8727 324.822 45.5157C327.02 34.1597 319.569 23.1317 308.213 20.9347Z" fill="#FFCC83"/>
<path d="M309.466 14.4616C294.541 11.5736 280.048 21.3666 277.159 36.2916C274.271 51.2176 284.064 65.7106 298.99 68.5986C313.915 71.4866 328.408 61.6936 331.296 46.7676C334.184 31.8426 324.391 17.3496 309.466 14.4616ZM300.242 62.1256C288.886 59.9276 281.434 48.9006 283.632 37.5436C285.83 26.1876 296.857 18.7356 308.214 20.9336C319.57 23.1316 327.021 34.1586 324.824 45.5146C322.625 56.8726 311.598 64.3236 300.242 62.1256Z" fill="#FFE3B4"/>
<path d="M313.373 47.7408C312.985 49.7458 311.948 51.2168 310.262 52.1538C308.576 53.0908 306.404 53.4258 303.747 53.1608L302.997 57.0388L300.405 56.5368L301.141 52.7338C298.076 52.0758 295.482 51.0108 293.359 49.5398L294.326 44.5448C295.319 45.2998 296.547 46.0348 298.011 46.7498C299.476 47.4648 300.806 47.9778 302.002 48.2878L303.137 42.4228L301.965 41.6858C299.658 40.2188 298.096 38.8078 297.279 37.4518C296.462 36.0958 296.217 34.5668 296.547 32.8648C296.901 31.0358 297.908 29.6708 299.568 28.7678C301.227 27.8658 303.361 27.5358 305.971 27.7798L306.531 24.8848L309.123 25.3868L308.577 28.2058C311.44 28.8908 313.939 29.9758 316.072 31.4618L313.438 35.5448C311.626 34.3568 309.703 33.4748 307.67 32.8978L306.59 38.4788C308.866 39.9008 310.457 41.0588 311.364 41.9538C312.27 42.8488 312.886 43.7598 313.21 44.6858C313.533 45.6118 313.588 46.6308 313.373 47.7408ZM302.24 33.9668C302.133 34.5218 302.237 35.0158 302.552 35.4498C302.866 35.8838 303.416 36.3728 304.201 36.9168L305.061 32.4708C303.388 32.3958 302.447 32.8948 302.24 33.9668ZM307.624 46.9218C307.727 46.3918 307.598 45.9028 307.241 45.4538C306.883 45.0058 306.313 44.5028 305.531 43.9458L304.619 48.6568C306.39 48.6988 307.392 48.1208 307.624 46.9218Z" fill="#FFE3B4"/>
<path d="M145.865 24.3761C133.985 27.6391 126.973 39.9591 130.236 51.8391C133.499 63.7201 145.819 70.7311 157.699 67.4681C169.579 64.2051 176.59 51.8861 173.327 40.0051C170.065 28.1251 157.746 21.1141 145.865 24.3761Z" fill="#FFCC83"/>
<path d="M144.007 17.6054C128.393 21.8934 119.178 38.0854 123.466 53.6994C127.754 69.3134 143.946 78.5284 159.56 74.2404C175.174 69.9524 184.388 53.7604 180.1 38.1464C175.812 22.5324 159.621 13.3174 144.007 17.6054ZM157.7 67.4684C145.82 70.7314 133.499 63.7204 130.237 51.8394C126.974 39.9594 133.986 27.6394 145.866 24.3764C157.746 21.1134 170.066 28.1254 173.328 40.0054C176.591 51.8864 169.581 64.2064 157.7 67.4684Z" fill="#FFE3B4"/>
<path d="M163.446 47.5342C164.022 49.6322 163.726 51.5262 162.559 53.2152C161.391 54.9062 159.476 56.2512 156.814 57.2512L157.928 61.3082L155.216 62.0532L154.123 58.0752C150.885 58.8932 147.906 59.1012 145.185 58.6992L143.75 53.4742C145.054 53.7262 146.574 53.8482 148.309 53.8402C150.045 53.8312 151.558 53.6932 152.846 53.4242L151.161 47.2892L149.694 47.1392C146.799 46.8272 144.641 46.2172 143.221 45.3092C141.801 44.4002 140.846 43.0562 140.357 41.2752C139.832 39.3622 140.148 37.5832 141.307 35.9372C142.465 34.2932 144.348 32.9702 146.954 31.9712L146.122 28.9432L148.834 28.1982L149.644 31.1472C152.701 30.4492 155.599 30.3062 158.337 30.7182L157.749 35.8602C155.458 35.5812 153.206 35.6462 150.992 36.0562L152.595 41.8952C155.439 42.1782 157.505 42.5332 158.793 42.9602C160.081 43.3872 161.099 43.9662 161.845 44.6972C162.595 45.4262 163.128 46.3732 163.446 47.5342ZM146.315 39.6382C146.474 40.2192 146.807 40.6412 147.313 40.9072C147.818 41.1732 148.574 41.3802 149.58 41.5292L148.303 36.8782C146.67 37.5972 146.007 38.5172 146.315 39.6382ZM157.571 49.4672C157.419 48.9132 157.065 48.5062 156.512 48.2472C155.958 47.9882 155.177 47.7772 154.167 47.6142L155.52 52.5422C157.231 51.7452 157.915 50.7212 157.571 49.4672Z" fill="#FFE3B4"/>
<path d="M101.224 75.8592C90.9641 76.0762 82.7931 84.6012 83.0101 94.8612C83.2271 105.122 91.7521 113.292 102.012 113.075C112.272 112.858 120.443 104.333 120.225 94.0732C120.008 83.8122 111.484 75.6412 101.224 75.8592Z" fill="#FFCC83"/>
<path d="M101.1 70.0114C87.6148 70.2974 76.8758 81.5004 77.1618 94.9854C77.4478 108.47 88.6508 119.209 102.136 118.923C115.621 118.637 126.359 107.434 126.073 93.9494C125.788 80.4634 114.585 69.7254 101.1 70.0114ZM102.013 113.075C91.7528 113.292 83.2278 105.122 83.0108 94.8614C82.7938 84.6014 90.9648 76.0764 101.225 75.8594C111.485 75.6424 120.009 83.8124 120.227 94.0724C120.443 104.333 112.273 112.857 102.013 113.075Z" fill="#FFE3B4"/>
<path d="M110.712 98.1424C110.75 99.9544 110.126 101.424 108.839 102.551C107.552 103.679 105.731 104.376 103.377 104.642L103.451 108.146L101.109 108.196L101.036 104.76C98.2544 104.762 95.8054 104.324 93.6894 103.445L93.5934 98.9324C94.5954 99.4014 95.7984 99.8094 97.2014 100.155C98.6054 100.501 99.8554 100.697 100.95 100.742L100.838 95.4434L99.6844 95.0234C97.4094 94.1824 95.7904 93.2504 94.8284 92.2274C93.8664 91.2044 93.3684 89.9244 93.3354 88.3854C93.3004 86.7334 93.9184 85.3604 95.1894 84.2674C96.4594 83.1754 98.2494 82.4904 100.557 82.2124L100.502 79.5974L102.844 79.5474L102.898 82.0944C105.51 82.1534 107.879 82.6274 110.007 83.5164L108.486 87.5504C106.692 86.8584 104.86 86.4534 102.988 86.3334L103.095 91.3754C105.335 92.1824 106.932 92.8904 107.885 93.4974C108.838 94.1044 109.543 94.7784 109.997 95.5214C110.453 96.2674 110.691 97.1404 110.712 98.1424ZM98.4814 88.2784C98.4924 88.7794 98.6754 89.1894 99.0294 89.5064C99.3834 89.8234 99.9514 90.1454 100.733 90.4704L100.648 86.4534C99.1834 86.7014 98.4614 87.3104 98.4814 88.2784ZM105.573 98.5084C105.563 98.0294 105.36 97.6294 104.966 97.3074C104.571 96.9854 103.983 96.6554 103.201 96.3184L103.291 100.574C104.835 100.279 105.596 99.5914 105.573 98.5084Z" fill="#FFE3B4"/>
<path d="M29.3774 95.2427C28.7684 95.2427 28.2754 95.7357 28.2754 96.3447V103.559C28.2754 104.168 28.7684 104.661 29.3774 104.661C29.9864 104.661 30.4794 104.168 30.4794 103.559V96.3447C30.4794 95.7357 29.9864 95.2427 29.3774 95.2427Z" fill="#0FBCF9"/>
<path d="M29.3774 110.684C28.7684 110.684 28.2754 111.177 28.2754 111.786V119C28.2754 119.609 28.7684 120.102 29.3774 120.102C29.9864 120.102 30.4794 119.609 30.4794 119V111.786C30.4794 111.177 29.9864 110.684 29.3774 110.684Z" fill="#0FBCF9"/>
<path d="M25.2652 106.571H18.0512C17.4422 106.571 16.9492 107.064 16.9492 107.673C16.9492 108.282 17.4422 108.775 18.0512 108.775H25.2652C25.8742 108.775 26.3672 108.282 26.3672 107.673C26.3672 107.064 25.8742 106.571 25.2652 106.571Z" fill="#0FBCF9"/>
<path d="M40.7047 106.571H33.4907C32.8817 106.571 32.3887 107.064 32.3887 107.673C32.3887 108.282 32.8817 108.775 33.4907 108.775H40.7047C41.3137 108.775 41.8067 108.282 41.8067 107.673C41.8067 107.064 41.3137 106.571 40.7047 106.571Z" fill="#0FBCF9"/>
<path d="M37.7196 98.3578C37.2636 97.9548 36.5666 97.9978 36.1636 98.4538L31.3876 103.861C30.9846 104.317 31.0276 105.014 31.4836 105.417C31.9396 105.82 32.6366 105.777 33.0396 105.321L37.8156 99.9138C38.2196 99.4568 38.1766 98.7608 37.7196 98.3578Z" fill="#0FBCF9"/>
<path d="M27.4969 109.93C27.0409 109.527 26.3439 109.57 25.9409 110.026L21.1649 115.432C20.7619 115.888 20.8049 116.585 21.2609 116.988C21.7169 117.391 22.4139 117.348 22.8169 116.892L27.5929 111.486C27.9969 111.029 27.9539 110.333 27.4969 109.93Z" fill="#0FBCF9"/>
<path d="M27.1377 104.124L21.7307 99.348C21.2747 98.945 20.5777 98.988 20.1747 99.444C19.7717 99.9 19.8147 100.597 20.2707 101L25.6777 105.777C26.1337 106.18 26.8307 106.137 27.2337 105.681C27.6367 105.223 27.5937 104.527 27.1377 104.124Z" fill="#0FBCF9"/>
<path d="M38.7089 114.347L33.3029 109.571C32.8469 109.168 32.1499 109.211 31.7469 109.667C31.3439 110.123 31.3869 110.82 31.8429 111.223L37.2489 115.999C37.7049 116.402 38.4019 116.359 38.8049 115.903C39.2079 115.446 39.1649 114.75 38.7089 114.347Z" fill="#0FBCF9"/>
<path d="M266.317 82.7866C265.708 82.7866 265.215 83.2796 265.215 83.8886V91.1026C265.215 91.7116 265.708 92.2046 266.317 92.2046C266.926 92.2046 267.419 91.7116 267.419 91.1026V83.8886C267.419 83.2806 266.926 82.7866 266.317 82.7866Z" fill="#0FBCF9"/>
<path d="M266.317 98.2275C265.708 98.2275 265.215 98.7205 265.215 99.3295V106.544C265.215 107.153 265.708 107.646 266.317 107.646C266.926 107.646 267.419 107.153 267.419 106.544V99.3295C267.419 98.7205 266.926 98.2275 266.317 98.2275Z" fill="#0FBCF9"/>
<path d="M262.205 94.1147H254.991C254.382 94.1147 253.889 94.6077 253.889 95.2167C253.889 95.8257 254.382 96.3187 254.991 96.3187H262.205C262.814 96.3187 263.307 95.8257 263.307 95.2167C263.307 94.6077 262.814 94.1147 262.205 94.1147Z" fill="#0FBCF9"/>
<path d="M277.644 94.1147H270.43C269.821 94.1147 269.328 94.6077 269.328 95.2167C269.328 95.8257 269.821 96.3187 270.43 96.3187H277.644C278.253 96.3187 278.746 95.8257 278.746 95.2167C278.746 94.6077 278.253 94.1147 277.644 94.1147Z" fill="#0FBCF9"/>
<path d="M274.659 85.9017C274.203 85.4987 273.506 85.5417 273.103 85.9977L268.327 91.4047C267.924 91.8607 267.967 92.5577 268.423 92.9607C268.879 93.3637 269.576 93.3207 269.979 92.8647L274.755 87.4577C275.159 87.0007 275.116 86.3047 274.659 85.9017Z" fill="#0FBCF9"/>
<path d="M264.436 97.4735C263.98 97.0705 263.283 97.1135 262.88 97.5695L258.104 102.975C257.701 103.431 257.744 104.128 258.2 104.531C258.656 104.934 259.353 104.891 259.756 104.435L264.532 99.0295C264.936 98.5725 264.893 97.8765 264.436 97.4735Z" fill="#0FBCF9"/>
<path d="M264.077 91.6675L258.67 86.8905C258.214 86.4875 257.517 86.5305 257.114 86.9865C256.711 87.4425 256.754 88.1395 257.21 88.5425L262.617 93.3195C263.073 93.7225 263.77 93.6795 264.173 93.2235C264.576 92.7665 264.533 92.0705 264.077 91.6675Z" fill="#0FBCF9"/>
<path d="M275.648 101.891L270.242 97.1146C269.786 96.7116 269.089 96.7546 268.686 97.2106C268.283 97.6666 268.326 98.3636 268.782 98.7666L274.188 103.543C274.644 103.946 275.341 103.903 275.744 103.447C276.147 102.99 276.104 102.294 275.648 101.891Z" fill="#0FBCF9"/>
<path d="M97.1992 23.1025C96.6932 23.1025 96.2832 23.5125 96.2832 24.0185V30.0135C96.2832 30.5195 96.6932 30.9295 97.1992 30.9295C97.7052 30.9295 98.1152 30.5195 98.1152 30.0135V24.0185C98.1152 23.5125 97.7052 23.1025 97.1992 23.1025Z" fill="#0FBCF9"/>
<path d="M97.1992 35.9346C96.6932 35.9346 96.2832 36.3446 96.2832 36.8506V42.8456C96.2832 43.3516 96.6932 43.7616 97.1992 43.7616C97.7052 43.7616 98.1152 43.3516 98.1152 42.8456V36.8506C98.1152 36.3446 97.7052 35.9346 97.1992 35.9346Z" fill="#0FBCF9"/>
<path d="M93.7821 32.5166H87.7871C87.2811 32.5166 86.8711 32.9266 86.8711 33.4326C86.8711 33.9386 87.2811 34.3486 87.7871 34.3486H93.7821C94.2881 34.3486 94.6981 33.9386 94.6981 33.4326C94.6981 32.9266 94.2881 32.5166 93.7821 32.5166Z" fill="#0FBCF9"/>
<path d="M106.612 32.5166H100.617C100.111 32.5166 99.7012 32.9266 99.7012 33.4326C99.7012 33.9386 100.111 34.3486 100.617 34.3486H106.612C107.118 34.3486 107.528 33.9386 107.528 33.4326C107.528 32.9266 107.118 32.5166 106.612 32.5166Z" fill="#0FBCF9"/>
<path d="M104.132 25.6914C103.753 25.3564 103.174 25.3924 102.839 25.7714L98.8701 30.2644C98.5351 30.6434 98.5711 31.2224 98.9501 31.5574C99.3291 31.8924 99.9081 31.8564 100.243 31.4774L104.212 26.9844C104.547 26.6044 104.511 26.0264 104.132 25.6914Z" fill="#0FBCF9"/>
<path d="M95.636 35.3076C95.257 34.9726 94.678 35.0086 94.343 35.3876L90.374 39.8806C90.039 40.2596 90.075 40.8386 90.454 41.1736C90.833 41.5086 91.412 41.4726 91.747 41.0936L95.716 36.6006C96.051 36.2216 96.015 35.6426 95.636 35.3076Z" fill="#0FBCF9"/>
<path d="M95.3378 30.4822L90.8448 26.5132C90.4658 26.1782 89.8868 26.2142 89.5518 26.5932C89.2168 26.9722 89.2528 27.5512 89.6318 27.8862L94.1248 31.8552C94.5038 32.1902 95.0828 32.1542 95.4178 31.7752C95.7528 31.3962 95.7178 30.8172 95.3378 30.4822Z" fill="#0FBCF9"/>
<path d="M104.955 38.9783L100.462 35.0093C100.083 34.6743 99.504 34.7103 99.169 35.0893C98.834 35.4683 98.87 36.0473 99.249 36.3823L103.742 40.3513C104.121 40.6863 104.7 40.6503 105.035 40.2713C105.37 39.8923 105.334 39.3133 104.955 38.9783Z" fill="#0FBCF9"/>
<path d="M177.734 76.3486C177.305 76.3486 176.957 76.6966 176.957 77.1256V82.2136C176.957 82.6426 177.305 82.9906 177.734 82.9906C178.163 82.9906 178.511 82.6426 178.511 82.2136V77.1256C178.511 76.6966 178.163 76.3486 177.734 76.3486Z" fill="#0FBCF9"/>
<path d="M177.734 87.2397C177.305 87.2397 176.957 87.5877 176.957 88.0167V93.1047C176.957 93.5337 177.305 93.8817 177.734 93.8817C178.163 93.8817 178.511 93.5337 178.511 93.1047V88.0167C178.511 87.5877 178.163 87.2397 177.734 87.2397Z" fill="#0FBCF9"/>
<path d="M174.834 84.3389H169.746C169.317 84.3389 168.969 84.6869 168.969 85.1159C168.969 85.5449 169.317 85.8929 169.746 85.8929H174.834C175.263 85.8929 175.611 85.5449 175.611 85.1159C175.611 84.6869 175.263 84.3389 174.834 84.3389Z" fill="#0FBCF9"/>
<path d="M185.724 84.3389H180.636C180.207 84.3389 179.859 84.6869 179.859 85.1159C179.859 85.5449 180.207 85.8929 180.636 85.8929H185.724C186.153 85.8929 186.501 85.5449 186.501 85.1159C186.501 84.6869 186.153 84.3389 185.724 84.3389Z" fill="#0FBCF9"/>
<path d="M183.618 78.5458C183.296 78.2618 182.805 78.2918 182.521 78.6138L179.152 82.4268C178.868 82.7488 178.898 83.2398 179.22 83.5238C179.542 83.8078 180.033 83.7778 180.317 83.4558L183.686 79.6428C183.971 79.3218 183.94 78.8298 183.618 78.5458Z" fill="#0FBCF9"/>
<path d="M176.409 86.7079C176.087 86.4239 175.596 86.4539 175.312 86.7759L171.943 90.5889C171.659 90.9109 171.689 91.4019 172.011 91.6859C172.333 91.9699 172.824 91.9399 173.108 91.6179L176.477 87.8049C176.761 87.4829 176.731 86.9919 176.409 86.7079Z" fill="#0FBCF9"/>
<path d="M176.156 82.6131L172.343 79.2441C172.021 78.9601 171.53 78.99 171.246 79.312C170.962 79.634 170.992 80.125 171.314 80.409L175.127 83.7781C175.449 84.0621 175.94 84.0321 176.224 83.7101C176.508 83.3881 176.478 82.8971 176.156 82.6131Z" fill="#0FBCF9"/>
<path d="M184.316 89.823L180.503 86.454C180.181 86.17 179.69 86.2 179.406 86.522C179.122 86.844 179.152 87.335 179.474 87.619L183.287 90.988C183.609 91.272 184.1 91.242 184.384 90.92C184.668 90.598 184.638 90.107 184.316 89.823Z" fill="#0FBCF9"/>
<path d="M214.5 0.655762C213.994 0.655762 213.584 1.06576 213.584 1.57176V7.56676C213.584 8.07276 213.994 8.48277 214.5 8.48277C215.006 8.48277 215.416 8.07276 215.416 7.56676V1.57176C215.416 1.06576 215.006 0.655762 214.5 0.655762Z" fill="#0FBCF9"/>
<path d="M214.5 13.4878C213.994 13.4878 213.584 13.8978 213.584 14.4038V20.3998C213.584 20.9058 213.994 21.3158 214.5 21.3158C215.006 21.3158 215.416 20.9058 215.416 20.3998V14.4048C215.416 13.8978 215.006 13.4878 214.5 13.4878Z" fill="#0FBCF9"/>
<path d="M211.082 10.0698H205.086C204.58 10.0698 204.17 10.4798 204.17 10.9858C204.17 11.4918 204.58 11.9018 205.086 11.9018H211.082C211.588 11.9018 211.998 11.4918 211.998 10.9858C211.998 10.4798 211.588 10.0698 211.082 10.0698Z" fill="#0FBCF9"/>
<path d="M223.915 10.0698H217.92C217.414 10.0698 217.004 10.4798 217.004 10.9858C217.004 11.4918 217.414 11.9018 217.92 11.9018H223.915C224.421 11.9018 224.831 11.4918 224.831 10.9858C224.83 10.4798 224.42 10.0698 223.915 10.0698Z" fill="#0FBCF9"/>
<path d="M221.433 3.24465C221.054 2.90965 220.475 2.94565 220.14 3.32465L216.171 7.81765C215.836 8.19665 215.872 8.77565 216.251 9.11065C216.63 9.44565 217.209 9.40965 217.544 9.03065L221.513 4.53765C221.848 4.15765 221.812 3.57965 221.433 3.24465Z" fill="#0FBCF9"/>
<path d="M212.937 12.8618C212.558 12.5268 211.979 12.5628 211.644 12.9418L207.675 17.4348C207.34 17.8138 207.376 18.3928 207.755 18.7278C208.134 19.0628 208.713 19.0268 209.048 18.6478L213.017 14.1548C213.352 13.7748 213.316 13.1968 212.937 12.8618Z" fill="#0FBCF9"/>
<path d="M212.639 8.03689L208.146 4.06789C207.767 3.73289 207.188 3.76889 206.853 4.14789C206.518 4.52689 206.554 5.1059 206.933 5.4409L211.426 9.40989C211.805 9.74489 212.384 9.7089 212.719 9.3299C213.054 8.9499 213.019 8.37189 212.639 8.03689Z" fill="#0FBCF9"/>
<path d="M222.256 16.5315L217.763 12.5625C217.384 12.2275 216.805 12.2635 216.47 12.6425C216.135 13.0215 216.171 13.6005 216.55 13.9355L221.043 17.9045C221.422 18.2395 222.001 18.2035 222.336 17.8245C222.671 17.4455 222.635 16.8665 222.256 16.5315Z" fill="#0FBCF9"/>
<path d="M258.598 189.41C258.092 189.41 257.682 189.82 257.682 190.326V196.321C257.682 196.827 258.092 197.237 258.598 197.237C259.104 197.237 259.514 196.827 259.514 196.321V190.326C259.514 189.82 259.104 189.41 258.598 189.41Z" fill="#0FBCF9"/>
<path d="M258.598 202.242C258.092 202.242 257.682 202.652 257.682 203.158V209.153C257.682 209.659 258.092 210.069 258.598 210.069C259.104 210.069 259.514 209.659 259.514 209.153V203.158C259.514 202.652 259.104 202.242 258.598 202.242Z" fill="#0FBCF9"/>
<path d="M255.181 198.824H249.186C248.68 198.824 248.27 199.234 248.27 199.74C248.27 200.246 248.68 200.656 249.186 200.656H255.181C255.687 200.656 256.097 200.246 256.097 199.74C256.096 199.234 255.686 198.824 255.181 198.824Z" fill="#0FBCF9"/>
<path d="M268.011 198.824H262.016C261.51 198.824 261.1 199.234 261.1 199.74C261.1 200.246 261.51 200.656 262.016 200.656H268.011C268.517 200.656 268.927 200.246 268.927 199.74C268.927 199.234 268.517 198.824 268.011 198.824Z" fill="#0FBCF9"/>
<path d="M265.531 191.998C265.152 191.663 264.573 191.699 264.238 192.078L260.269 196.571C259.934 196.95 259.97 197.529 260.349 197.864C260.728 198.199 261.307 198.163 261.642 197.784L265.611 193.291C265.946 192.912 265.91 192.333 265.531 191.998Z" fill="#0FBCF9"/>
<path d="M257.034 201.615C256.655 201.28 256.076 201.316 255.741 201.695L251.772 206.188C251.437 206.567 251.473 207.146 251.852 207.481C252.231 207.816 252.81 207.78 253.145 207.401L257.114 202.908C257.449 202.529 257.413 201.95 257.034 201.615Z" fill="#0FBCF9"/>
<path d="M256.736 196.789L252.243 192.82C251.864 192.485 251.285 192.521 250.95 192.9C250.615 193.279 250.651 193.858 251.03 194.193L255.523 198.162C255.902 198.497 256.481 198.461 256.816 198.082C257.151 197.703 257.115 197.124 256.736 196.789Z" fill="#0FBCF9"/>
<path d="M266.353 205.285L261.86 201.316C261.481 200.981 260.902 201.017 260.567 201.396C260.232 201.775 260.268 202.354 260.647 202.689L265.14 206.658C265.519 206.993 266.098 206.957 266.433 206.578C266.768 206.198 266.732 205.62 266.353 205.285Z" fill="#0FBCF9"/>
<path d="M96.2838 144.363C99.7964 144.363 102.644 141.516 102.644 138.003C102.644 134.491 99.7964 131.643 96.2838 131.643C92.7713 131.643 89.9238 134.491 89.9238 138.003C89.9238 141.516 92.7713 144.363 96.2838 144.363Z" fill="#0FBCF9"/>
<path d="M211.17 132.822C213.518 132.822 215.422 130.918 215.422 128.57C215.422 126.222 213.518 124.318 211.17 124.318C208.822 124.318 206.918 126.222 206.918 128.57C206.918 130.918 208.822 132.822 211.17 132.822Z" fill="#0FBCF9"/>
<path d="M307.344 209.443C310.857 209.443 313.704 206.595 313.704 203.083C313.704 199.57 310.857 196.723 307.344 196.723C303.832 196.723 300.984 199.57 300.984 203.083C300.984 206.595 303.832 209.443 307.344 209.443Z" fill="#0FBCF9"/>
<path d="M20.5407 210.495C23.0658 210.495 25.1127 208.448 25.1127 205.923C25.1127 203.398 23.0658 201.351 20.5407 201.351C18.0157 201.351 15.9688 203.398 15.9688 205.923C15.9688 208.448 18.0157 210.495 20.5407 210.495Z" fill="#0FBCF9"/>
<path d="M84.4108 163.624C84.4108 145.428 66.2158 130.678 43.7718 130.678C21.3278 130.678 3.13281 145.428 3.13281 163.624C3.13281 181.82 21.3278 196.57 43.7718 196.57C48.7038 196.57 53.4288 195.857 57.8028 194.552L57.8018 194.553L73.0338 203.083V186.473C80.0738 180.549 84.4108 172.499 84.4108 163.624Z" fill="#FFEBEB"/>
<path d="M23.8729 169.493C27.1143 169.493 29.7419 166.865 29.7419 163.624C29.7419 160.383 27.1143 157.755 23.8729 157.755C20.6316 157.755 18.0039 160.383 18.0039 163.624C18.0039 166.865 20.6316 169.493 23.8729 169.493Z" fill="#0FBCF9"/>
<path d="M43.7713 169.493C47.0127 169.493 49.6404 166.865 49.6404 163.624C49.6404 160.383 47.0127 157.755 43.7713 157.755C40.53 157.755 37.9023 160.383 37.9023 163.624C37.9023 166.865 40.53 169.493 43.7713 169.493Z" fill="#0FBCF9"/>
<path d="M63.6698 169.493C66.9111 169.493 69.5388 166.865 69.5388 163.624C69.5388 160.383 66.9111 157.755 63.6698 157.755C60.4284 157.755 57.8008 160.383 57.8008 163.624C57.8008 166.865 60.4284 169.493 63.6698 169.493Z" fill="#0FBCF9"/>
<path d="M63.8881 44.8308C63.8881 27.9468 50.2011 14.2598 33.3171 14.2598C16.4331 14.2598 2.74609 27.9468 2.74609 44.8308C2.74609 61.7148 16.4331 75.4018 33.3171 75.4018C35.6741 75.4018 37.9661 75.1258 40.1701 74.6208L51.7101 80.9678V69.2478C59.1051 63.6698 63.8881 54.8098 63.8881 44.8308Z" fill="#0FBCF9"/>
<path d="M22.6034 40.3781L13.6992 40.5464L14.0634 59.8125L22.9676 59.6442L22.6034 40.3781Z" fill="#FFEBEB"/>
<path d="M24.418 42.5299L26.027 40.9689C26.027 40.9689 32.024 29.9779 32.296 28.8609C32.568 27.7439 31.801 21.2609 31.801 21.2609C31.801 21.2609 34.407 19.8069 36.045 22.8199C37.682 25.8329 37.689 26.1839 37.666 28.0569C37.643 29.9299 36.762 35.9759 36.762 35.9759C36.762 35.9759 49.019 35.7149 49.78 35.7009C50.541 35.6869 52.459 36.5579 52.462 38.2259C52.465 39.8939 51.282 40.8529 50.272 41.5739C50.272 41.5739 52.689 42.4939 52.891 43.8949C53.093 45.2959 52.627 46.9439 51.173 47.4689C49.72 47.9939 49.72 47.9939 49.72 47.9939C49.72 47.9939 51.266 49.2959 51.165 50.9079C51.064 52.5199 50.01 53.2999 49.108 53.5509C48.206 53.8019 47.605 53.7839 47.605 53.7839C47.605 53.7839 48.865 55.4059 48.56 56.6849C48.255 57.9639 47.706 59.1369 46.456 59.1609C45.206 59.1849 30.272 59.5689 28.983 59.4909C27.694 59.4129 24.703 57.5379 24.703 57.5379L24.418 42.5299Z" fill="#FFEBEB"/>
<path d="M273.055 138.449C273.055 121.565 286.742 107.878 303.626 107.878C320.51 107.878 334.197 121.565 334.197 138.449C334.197 155.333 320.51 169.02 303.626 169.02C301.269 169.02 298.977 168.744 296.773 168.239L285.233 174.586V162.866C277.838 157.288 273.055 148.428 273.055 138.449Z" fill="#0FBCF9"/>
<path d="M285.291 133.185C286.507 121.5 302.624 124.733 303.628 129.771C304.638 124.735 320.759 121.521 321.961 133.207C323.163 144.894 303.612 155.661 303.612 155.661C303.612 155.661 284.075 144.87 285.291 133.185Z" fill="#FFEBEB"/>
<path d="M328.785 401.31H7.22585C3.76785 401.31 0.964844 398.507 0.964844 395.049V233.489C0.964844 230.031 3.76785 227.228 7.22585 227.228H328.785C332.243 227.228 335.046 230.031 335.046 233.489V395.049C335.047 398.506 332.243 401.31 328.785 401.31Z" fill="#0FBCF9"/>
<path d="M315.301 325.111C321.283 325.111 326.133 320.261 326.133 314.279C326.133 308.296 321.283 303.447 315.301 303.447C309.318 303.447 304.469 308.296 304.469 314.279C304.469 320.261 309.318 325.111 315.301 325.111Z" fill="#FFEBEB"/>
<path d="M14.5965 334.249C13.0595 334.249 11.8125 333.003 11.8125 331.465V297.092C11.8125 295.555 13.0585 294.308 14.5965 294.308C16.1335 294.308 17.3805 295.554 17.3805 297.092V331.465C17.3805 333.003 16.1345 334.249 14.5965 334.249Z" fill="#FFEBEB"/>
<path d="M14.5965 270.189C16.1341 270.189 17.3805 268.943 17.3805 267.405C17.3805 265.868 16.1341 264.621 14.5965 264.621C13.0589 264.621 11.8125 265.868 11.8125 267.405C11.8125 268.943 13.0589 270.189 14.5965 270.189Z" fill="#FFEBEB"/>
<path d="M14.5965 258.215C16.1341 258.215 17.3805 256.969 17.3805 255.431C17.3805 253.893 16.1341 252.647 14.5965 252.647C13.0589 252.647 11.8125 253.893 11.8125 255.431C11.8125 256.969 13.0589 258.215 14.5965 258.215Z" fill="#FFEBEB"/>
<path d="M284.658 396.282H39.2274C34.1694 396.282 30.0684 392.181 30.0684 387.123V241.413C30.0684 236.355 34.1694 232.254 39.2274 232.254H284.658C289.716 232.254 293.817 236.355 293.817 241.413V387.123C293.817 392.182 289.716 396.282 284.658 396.282Z" fill="#FFEBEB"/>
<path d="M274.961 269.001H48.485C45.065 269.001 42.293 266.229 42.293 262.809V251.44C42.293 248.02 45.065 245.248 48.485 245.248H274.961C278.381 245.248 281.153 248.02 281.153 251.44V262.809C281.152 266.229 278.38 269.001 274.961 269.001Z" fill="#E4C9C2"/>
<path d="M274.961 383.106H48.485C45.065 383.106 42.293 380.334 42.293 376.914V282.953C42.293 279.533 45.065 276.761 48.485 276.761H274.961C278.381 276.761 281.153 279.533 281.153 282.953V376.914C281.152 380.334 278.38 383.106 274.961 383.106Z" fill="#E4C9C2"/>
<path d="M157.014 179.235L154.494 193.013C154.494 193.013 162.027 199.843 168.721 199.738C175.415 199.633 183.116 192.378 183.116 192.378L181.012 176.337L157.014 179.235Z" fill="#FF9292"/>
<path d="M156.879 179.885C156.879 179.885 160.432 187.462 168.16 187.856C175.888 188.25 181.537 180.329 181.537 180.329L181.014 176.337L157.436 176.737L156.879 179.885Z" fill="#FF7373"/>
<path d="M196.582 149.498C195.522 148.911 194.621 149.259 193.898 149.954C194.118 147.019 194.123 144.514 194.011 142.788C193.394 133.274 187.223 110.138 166.653 113.165C155.633 114.787 149.631 121 146.323 127.268C143.005 133.555 142.023 140.903 143.129 147.998C143.44 149.994 143.86 152.292 144.415 154.739C143.521 153.818 142.382 153.247 141.158 154.127C138.355 156.141 140.1 167.882 143.735 168.46C146.355 168.876 147.608 167.474 148.106 166.656C151.918 175.894 158.151 184.144 168.298 184.519C182.02 185.025 188.696 173.908 191.752 162.69C192.189 163.553 193.23 164.716 195.581 164.046C199.13 163.036 199.586 151.162 196.582 149.498Z" fill="#FF9292"/>
<path d="M166.773 163.747C166.773 163.747 167.28 165.372 168.85 165.508C171.566 165.742 172.259 163.499 172.259 163.499C172.259 163.499 170.831 164.672 169.024 164.532C168.243 164.471 166.773 163.747 166.773 163.747Z" fill="#301A2E"/>
<path d="M166.818 174.507C166.818 174.507 167.318 175.674 168.656 176.065C169.995 176.457 171.25 174.704 171.25 174.704C171.25 174.704 170.119 175.302 168.837 175.209C168.145 175.159 166.818 174.507 166.818 174.507Z" fill="#301A2E"/>
<path d="M163.863 169.856C163.863 169.856 165.258 171.273 169.329 171.19C173.4 171.107 175.17 169.22 175.17 169.22C175.17 169.22 174.302 173.009 169.034 172.838C163.767 172.667 163.863 169.856 163.863 169.856Z" fill="#301A2E"/>
<path d="M156.3 157.338C157.632 157.338 158.713 156.257 158.713 154.925C158.713 153.592 157.632 152.512 156.3 152.512C154.967 152.512 153.887 153.592 153.887 154.925C153.887 156.257 154.967 157.338 156.3 157.338Z" fill="#301A2E"/>
<path d="M159.836 148.317C159.836 148.317 154.524 148.039 151.95 150.03C149.376 152.021 151.846 150.564 153.393 150.26C158.421 149.272 158.377 151.285 160.23 150.457C161.466 149.906 160.881 148.999 159.836 148.317Z" fill="#301A2E"/>
<path d="M154.418 164.067C156.495 164.067 158.178 163.002 158.178 161.687C158.178 160.373 156.495 159.307 154.418 159.307C152.342 159.307 150.658 160.373 150.658 161.687C150.658 163.002 152.342 164.067 154.418 164.067Z" fill="#FF7373"/>
<path d="M181.311 156.916C182.644 156.916 183.724 155.836 183.724 154.503C183.724 153.17 182.644 152.09 181.311 152.09C179.979 152.09 178.898 153.17 178.898 154.503C178.898 155.836 179.979 156.916 181.311 156.916Z" fill="#301A2E"/>
<path d="M177.775 147.895C177.775 147.895 183.087 147.617 185.661 149.608C188.235 151.599 185.765 150.142 184.218 149.838C179.19 148.85 179.234 150.863 177.381 150.035C176.145 149.484 176.731 148.577 177.775 147.895Z" fill="#301A2E"/>
<path d="M183.192 164.067C185.268 164.067 186.952 163.002 186.952 161.687C186.952 160.373 185.268 159.307 183.192 159.307C181.115 159.307 179.432 160.373 179.432 161.687C179.432 163.002 181.115 164.067 183.192 164.067Z" fill="#FF7373"/>
<path d="M213.264 192.135C208.371 187.634 210.628 182.315 212.994 170.884C215.36 159.453 202.756 151.488 202.541 146.578C202.341 142.022 204.099 137.23 198.369 125.774C197.676 119.533 195.037 114.349 188.697 112.678C186.675 112.145 185.067 111.956 183.78 111.998C183.421 109.97 181.823 107.076 176.045 105.276C166.424 102.279 145.247 108.263 136.773 124.593C130.326 137.019 133.145 136.283 133.619 141.961C134.092 147.639 122.421 152.191 120.371 161.113C118.321 170.035 121.79 173.291 121.633 176.631C121.475 179.971 113.595 178.394 111.542 193.219C110.415 201.354 111.332 206.492 112.388 209.477C111.855 212.3 111.542 215.666 111.542 219.752C111.542 240.21 123.045 254.939 142.029 254.939C150.899 254.939 160.746 252.885 168.722 250.696C176.698 252.885 186.545 254.939 195.415 254.939C214.399 254.939 225.902 240.21 225.902 219.752C225.9 199.295 218.157 196.635 213.264 192.135ZM195.58 164.046C193.229 164.716 192.188 163.552 191.751 162.69C189.91 169.447 186.752 176.163 181.536 180.329L181.657 181.249L183.117 192.377C183.117 192.377 175.415 199.632 168.722 199.737C162.028 199.842 154.495 193.012 154.495 193.012L156.634 181.318C156.632 181.315 156.628 181.309 156.628 181.309L156.88 179.885C153.052 176.546 150.209 171.753 148.106 166.656C148.054 166.741 148.175 166.561 148.106 166.656C147.92 155.218 150.209 142.041 160.927 141.106C172.591 140.089 178.878 135.629 181.745 132.821C183.426 135.259 189.49 144.27 189.434 147.329C189.261 156.722 191.134 163.102 192.575 157.437C193.589 153.45 192.873 152.055 194.021 149.847C194.723 149.228 195.581 148.942 196.583 149.497C199.585 151.162 199.129 163.036 195.58 164.046Z" fill="#301A2E"/>
<path d="M156.563 396.272L164.532 365.132H165.321H172.418H173.207L181.176 396.272H225.66C223.786 378.483 221.448 360.371 218.945 350.622C212.952 327.28 194.867 282.698 194.867 282.698L142.505 283.329C142.505 283.329 124.788 327.28 118.795 350.622C116.292 360.371 113.954 378.483 112.08 396.272H156.563Z" fill="#301A2E"/>
<path d="M137.393 296.353C137.393 296.353 150.688 303.387 168.462 301.915C186.236 300.443 199.179 293.587 199.179 293.587C199.179 293.587 186.611 304.124 168.286 304.229C149.961 304.333 138.915 297.731 137.393 296.353Z" fill="#0FBCF9"/>
<path d="M164.255 304.137C164.255 304.137 162.987 330.829 164.255 331.776C165.523 332.722 172.778 338.4 172.778 338.4L165.418 329.988L165.944 303.491L164.255 304.137Z" fill="#0FBCF9"/>
<path d="M203.888 305.857L188.154 312.012C188.154 312.012 196.436 334.986 198.013 336.3C199.59 337.614 215.627 339.205 215.627 339.205L199.18 334.855L190.6 313.403L204.493 307.469L203.888 305.857Z" fill="#0FBCF9"/>
<path d="M133.139 307.583L148.873 313.738C148.873 313.738 140.591 336.711 139.014 338.026C137.437 339.341 121.564 340.931 121.564 340.931L137.847 336.581L146.427 315.129L132.534 309.195L133.139 307.583Z" fill="#0FBCF9"/>
<path d="M223.89 63.7287L227.786 69.0147L229.049 61.2217L232.127 66.5857L235.467 62.7967L238.283 67.9947L241.044 65.0047C241.044 65.0047 243.871 67.9967 244.508 69.6347C245.145 71.2727 247.956 78.4467 247.884 82.7697C247.813 87.0927 243.207 94.1087 240.894 93.6727C238.581 93.2367 230.054 88.4807 228.357 86.2407C226.659 84.0007 224.753 76.8367 224.12 73.7867C223.487 70.7367 223.89 63.7287 223.89 63.7287Z" fill="#FF7373"/>
<path d="M235.711 28.1569L237.472 38.4779L238.628 45.2549L241.238 60.5549C242.283 66.6779 238.165 72.4889 232.042 73.5339C225.919 74.5789 220.108 70.4619 219.063 64.3379L216.453 49.0379L215.297 42.2609L213.536 31.9399L200.541 34.1569L205.956 65.8999L206.188 67.2629C209.06 79.8309 221.288 88.1089 234.153 85.9149C247.018 83.7209 255.81 71.8559 254.352 59.0469L254.12 57.6839L248.705 25.9409L235.711 28.1569Z" fill="#0FBCF9"/>
<path d="M213.549 31.9351L200.555 34.1523L201.967 42.4291L214.962 40.2119L213.549 31.9351Z" fill="#0FBCF9"/>
<path d="M248.721 25.9337L235.727 28.1509L237.139 36.4277L250.134 34.2104L248.721 25.9337Z" fill="#0FBCF9"/>
<path d="M219.669 66.2456C219.669 66.2456 221.539 71.7966 222.116 72.7386C222.693 73.6816 225.359 76.8366 226.267 76.7896C227.175 76.7426 227.839 77.1586 228.137 75.0496C228.435 72.9406 225.745 70.1566 225.071 67.4516C224.397 64.7466 224.308 63.6766 223.467 63.5146C222.626 63.3536 219.606 63.1546 219.669 66.2456Z" fill="#F98282"/>
<path d="M225.976 68.2568C225.976 68.2568 227.482 71.4418 228.269 73.1438C229.055 74.8448 230.966 74.1188 231.629 72.9388C232.292 71.7588 230.039 65.5438 229.869 64.8938C229.699 64.2438 229.452 61.5138 228.855 60.8898C228.258 60.2658 226.577 60.7398 225.836 61.4898C225.095 62.2398 224.859 62.5958 224.813 63.2848C224.767 63.9738 225.461 67.1648 225.976 68.2568Z" fill="#F98282"/>
<path d="M231.346 64.0016C231.346 64.0016 232.079 67.9656 232.268 68.8646C232.457 69.7636 234.125 74.0806 234.843 74.4896C235.561 74.8986 237.155 74.9326 237.521 73.6796C237.887 72.4266 237.09 68.8976 236.432 67.5766C235.774 66.2566 236.044 63.2226 235.469 62.7946C234.894 62.3666 232.874 62.3406 232.537 62.6016C232.201 62.8646 231.268 63.5776 231.346 64.0016Z" fill="#F98282"/>
<path d="M237.35 65.6249C237.35 65.6249 238.019 69.2079 238.35 69.8409C238.681 70.4739 239.487 71.5649 239.758 72.3019C240.029 73.0379 240.632 73.5829 241.557 73.2719C242.482 72.9599 243.106 71.5639 242.448 70.2439C241.79 68.9239 241.517 68.2139 241.549 66.9119C241.581 65.6099 240.755 64.4119 240.446 64.2589C240.137 64.1059 237.604 63.3799 237.35 65.6249Z" fill="#F98282"/>
<path d="M224.863 69.2646C224.863 69.2646 223.747 74.3706 222.977 76.3776C222.207 78.3846 223.662 80.1936 226.027 83.9566C228.216 87.4426 231.596 90.9916 235.417 93.3006C239.239 95.6096 242.675 94.0616 243.356 92.3326C244.037 90.6036 241.539 83.2736 236.96 81.6956C232.381 80.1176 232.297 81.3896 230.058 78.7586C227.818 76.1286 229.45 72.9006 228.251 70.6226C227.052 68.3446 224.979 68.7446 224.863 69.2646Z" fill="#FF9292"/>
<path d="M233.456 92.8047C233.456 92.8047 242.919 147.06 243.971 153.158C245.022 159.256 258.271 163.005 258.271 163.005C258.271 163.005 266.893 157.574 263.528 143.905C260.163 130.236 245.653 86.2847 245.653 86.2847C245.653 86.2847 233.246 84.8137 233.456 92.8047Z" fill="#FF9292"/>
<path d="M263.737 150.846C262.055 143.696 246.073 147.271 244.18 149.164C242.287 151.057 239.764 150.846 224.413 164.726C221.468 167.388 218.501 170.229 215.627 173.081C218.181 178.695 223.038 186.973 231.243 192.973C240.666 183.148 249.784 173.103 252.381 170.193C257.639 164.304 265.42 157.995 263.737 150.846Z" fill="#FF9292"/>
<path d="M235.135 155.57L242.33 149.261L241.897 141.233L243.662 144.884C244.793 147.418 246.86 149.066 249.356 150.277L251.004 151.077L247.376 150.929C244.568 150.815 241.788 151.532 239.386 152.99L235.135 155.57Z" fill="#FF7373"/>
<path d="M151.651 193.114C151.651 193.114 154.595 206.993 170.577 203.629C186.559 200.264 186.559 191.432 186.559 191.432L213.266 166.881C213.266 166.881 219.257 188.909 238.816 197.321L207.798 221.504L197.478 282.311C197.478 282.311 171.628 298.47 140.084 283.434L133.46 235.488L114.534 253.783C114.534 253.783 97.1847 244.215 94.3457 223.817C94.3457 223.817 123.524 199.055 127.94 197.163C132.357 195.27 151.651 193.114 151.651 193.114Z" fill="#0FBCF9"/>
<path d="M150.883 193.202L155.228 188.645C155.228 188.645 158.487 196.677 169.265 196.058C180.253 195.427 182.513 187.857 182.513 187.857L186.561 191.432C186.561 191.432 186.298 203.156 171.157 204.891C156.016 206.625 152.216 197.602 150.883 193.202Z" fill="#0FBCF9"/>
<path d="M144.283 256.536C144.283 256.536 154.272 251.273 168.812 250.522C175.795 250.161 189.354 255.311 189.354 255.311C189.354 255.311 156.94 254.019 144.283 256.536Z" fill="#C12F72"/>
<path d="M227.592 206.135L204.688 218.653L202.65 251.842L209.529 221.921L227.592 206.135Z" fill="#C12F72"/>
<path d="M122.793 245.801L134.852 231.724L136.234 255.561L132.795 238.502L122.793 245.801Z" fill="#C12F72"/>
<path d="M238.816 197.32C238.106 193.957 237.048 190.935 235.771 188.211C234.286 189.784 232.765 191.378 231.238 192.971C233.504 194.627 236.016 196.116 238.816 197.32Z" fill="#0FBCF9"/>
<path d="M215.625 173.081C216.737 171.977 217.862 170.876 218.996 169.785C215.662 167.749 213.279 166.881 213.279 166.881C213.279 166.881 213.274 166.897 213.271 166.905C213.318 167.07 214.013 169.538 215.625 173.081Z" fill="#0FBCF9"/>
<path d="M119.564 307.307C119.564 307.307 93.8673 258.595 90.9903 253.116C88.1133 247.637 74.3543 248.147 74.3543 248.147C74.3543 248.147 67.8213 255.967 75.2283 267.938C82.6353 279.909 109.964 317.263 109.964 317.263C109.964 317.263 122.223 314.845 119.564 307.307Z" fill="#FF9292"/>
<path d="M95.3419 228.659C90.6909 232.267 87.0609 235.142 85.4819 236.409C79.3249 241.349 72.6499 246.842 73.1299 254.172C73.6099 261.501 87.6779 259.638 90.1019 258.503C93.1879 257.058 94.5169 257.472 108.107 248.983C103.587 244.908 97.9139 238.185 95.3419 228.659Z" fill="#FF9292"/>
<path d="M98.0148 254.94L80.5078 248.134L97.3688 265.224L93.5188 257.292L98.0148 254.94Z" fill="#FF7373"/>
<path d="M128.276 320.904C129.219 318.25 130.172 315.616 131.115 313.044C129.436 310.87 125.921 306.746 122.561 305.527C117.929 303.846 125.558 317.252 127.343 319.618C127.696 320.085 127.999 320.508 128.276 320.904Z" fill="#FF7373"/>
<path d="M112.078 324.257L123.78 340.234L123.449 337.469L129.333 341.282L128.438 336.531L135.168 339.792L132 332.77L135.58 336.23L126.375 317.262L112.078 324.257Z" fill="#FF7373"/>
<path d="M114.266 300.927C114.266 300.927 122.695 305.183 124.864 306.685C127.034 308.187 127.952 317.2 128.536 318.285C129.12 319.37 136.351 329.088 138.522 333C140.366 336.323 137.688 337.312 136.018 336.561C134.348 335.81 125.531 322.04 124.613 321.957C123.695 321.874 133.654 335.476 134.905 338.731C136.157 341.986 132.763 342.403 131.177 340.901C129.591 339.399 120.857 325.295 120.273 324.795C119.689 324.294 119.744 324.962 120.217 325.741C120.69 326.52 129.485 339.728 129.341 341.458C129.174 343.461 126.81 344.198 124.195 340.025C121.58 335.852 116.99 327.716 116.935 327.938C116.879 328.161 116.379 327.938 116.657 328.773C116.935 329.608 123.445 338.787 123.778 340.234C124.112 341.681 122.331 342.738 120.662 341.124C119.302 339.809 112.261 329.496 111.148 327.215C110.035 324.934 107.003 315.281 107.921 308.271C108.842 301.261 114.266 300.927 114.266 300.927Z" fill="#FF9292"/>
</svg>
